# xmcd
#
# Track frame offsets:
#	150
#	29840
#	55006
#	78245
#	106162
#	128810
#	152034
#	173680
#	199339
#	221981
#	244800
#	279366
#
# Disc length: 3948 seconds
#
# Revision: 0
# Processed by: cddbd v1.5.2PL0 Copyright (c) Steve Scherf et al.
# Submitted via: EZCDAudioConverter 8.0.2.1
#
DISCID=a70f6a0c
DTITLE=Various Artist - st. Minh Kỳ [CD2)
DYEAR=2010
DGENRE=
TTITLE0=Vân Khánh - Mưa trên phố Huế
TTITLE1=Tuấn Vũ, Giao Linh - Sầu tím thiệp hồng
TTITLE2=Mỹ Huyền - Hà Tiên
TTITLE3=Mạnh Quỳnh - Ngày ấy quen nhau
TTITLE4=Vy Thúy Vân - Tình đời
TTITLE5=Giao Linh - Đường về khuya
TTITLE6=Hương Lan - Năm cụm núi quê hương
TTITLE7=Như Quỳnh - Dương Hồng Loan
TTITLE8=Phương Dung - Cánh buồm chuyển bến
TTITLE9=Trường Vũ - Tiếng hát Mường Luông
TTITLE10=Dương Hồng Loan - Chuyến đò không em
TTITLE11=Song ca - Ai nói với em
EXTD=
EXTT0=
EXTT1=
EXTT2=
EXTT3=
EXTT4=
EXTT5=
EXTT6=
EXTT7=
EXTT8=
EXTT9=
EXTT10=
EXTT11=
PLAYORDER=
